<mxfile host="app.diagrams.net" modified="2024-06-07T10:22:09.867Z" agent="Mozilla/5.0 (Windows NT 10.0; Win64; x64) AppleWebKit/537.36 (KHTML, like Gecko) Chrome/125.0.0.0 Safari/537.36" version="24.5.1" etag="msxc0cyMDm-k80JXCsNY" type="github">
  <diagram name="Page-1" id="04YdyRsU8t2Sb1RGPGkF">
    <mxGraphModel>
      <root>
        <mxCell id="0" />
        <mxCell id="1" parent="0" />
        <mxCell id="2" value="OWASP Top 10" style="whiteSpace=wrap;strokeWidth=2;verticalAlign=top;" vertex="1" parent="1">
          <mxGeometry width="392" height="2445" as="geometry" />
        </mxCell>
        <mxCell id="3" value="Injection" style="ellipse;aspect=fixed;strokeWidth=2;whiteSpace=wrap;" vertex="1" parent="2">
          <mxGeometry x="164" y="43" width="79" height="79" as="geometry" />
        </mxCell>
        <mxCell id="4" value="Broken Authentication" style="ellipse;aspect=fixed;strokeWidth=2;whiteSpace=wrap;" vertex="1" parent="2">
          <mxGeometry x="117" y="172" width="175" height="175" as="geometry" />
        </mxCell>
        <mxCell id="5" value="Sensitive Data Exposure" style="ellipse;aspect=fixed;strokeWidth=2;whiteSpace=wrap;" vertex="1" parent="2">
          <mxGeometry x="111" y="397" width="186" height="186" as="geometry" />
        </mxCell>
        <mxCell id="6" value="XML External Entities" style="ellipse;aspect=fixed;strokeWidth=2;whiteSpace=wrap;" vertex="1" parent="2">
          <mxGeometry x="120" y="633" width="168" height="168" as="geometry" />
        </mxCell>
        <mxCell id="7" value="Broken Access Control" style="ellipse;aspect=fixed;strokeWidth=2;whiteSpace=wrap;" vertex="1" parent="2">
          <mxGeometry x="117" y="851" width="173" height="173" as="geometry" />
        </mxCell>
        <mxCell id="8" value="Security Misconfiguration" style="ellipse;aspect=fixed;strokeWidth=2;whiteSpace=wrap;" vertex="1" parent="2">
          <mxGeometry x="106" y="1074" width="196" height="196" as="geometry" />
        </mxCell>
        <mxCell id="9" value="Cross-Site Scripting" style="ellipse;aspect=fixed;strokeWidth=2;whiteSpace=wrap;" vertex="1" parent="2">
          <mxGeometry x="127" y="1320" width="153" height="153" as="geometry" />
        </mxCell>
        <mxCell id="10" value="Insecure Deserialization" style="ellipse;aspect=fixed;strokeWidth=2;whiteSpace=wrap;" vertex="1" parent="2">
          <mxGeometry x="111" y="1523" width="187" height="187" as="geometry" />
        </mxCell>
        <mxCell id="11" value="Using Components with Known Vulnerabilities" style="ellipse;aspect=fixed;strokeWidth=2;whiteSpace=wrap;" vertex="1" parent="2">
          <mxGeometry x="33" y="1760" width="342" height="342" as="geometry" />
        </mxCell>
        <mxCell id="12" value="Insufficient Logging and Monitoring" style="ellipse;aspect=fixed;strokeWidth=2;whiteSpace=wrap;" vertex="1" parent="2">
          <mxGeometry x="71" y="2152" width="266" height="266" as="geometry" />
        </mxCell>
      </root>
    </mxGraphModel>
  </diagram>
</mxfile>
